HIERARCHY
ROOT Hips
{
	OFFSET 0.00000 0.00000 0.00000
	CHANNELS 6 Xposition Yposition Zposition Zrotation Yrotation Xrotation 
	JOINT LHipJoint
	{
		OFFSET 0 0 0
		CHANNELS 3 Zrotation Yrotation Xrotation
		JOINT LeftUpLeg
		{
			OFFSET 1.41261 -1.82971 0.84908
			CHANNELS 3 Zrotation Yrotation Xrotation
			JOINT LeftLeg
			{
				OFFSET 2.52554 -6.93888 0.00000
				CHANNELS 3 Zrotation Yrotation Xrotation
				JOINT LeftFoot
				{
					OFFSET 2.56654 -7.05152 0.00000
					CHANNELS 3 Zrotation Yrotation Xrotation
					JOINT LeftToeBase
					{
						OFFSET 0.21698 -0.59616 1.85369
						CHANNELS 3 Zrotation Yrotation Xrotation
						End Site
						{
							OFFSET 0.00000 -0.00000 0.97832
						}
					}
				}
			}
		}
	}
	JOINT RHipJoint
	{
		OFFSET 0 0 0
		CHANNELS 3 Zrotation Yrotation Xrotation
		JOINT RightUpLeg
		{
			OFFSET -1.12808 -1.82971 0.84907
			CHANNELS 3 Zrotation Yrotation Xrotation
			JOINT RightLeg
			{
				OFFSET -2.53425 -6.96280 0.00000
				CHANNELS 3 Zrotation Yrotation Xrotation
				JOINT RightFoot
				{
					OFFSET -2.58413 -7.09983 0.00000
					CHANNELS 3 Zrotation Yrotation Xrotation
					JOINT RightToeBase
					{
						OFFSET -0.26437 -0.72636 1.92241
						CHANNELS 3 Zrotation Yrotation Xrotation
						End Site
						{
							OFFSET -0.00000 -0.00000 1.02667
						}
					}
				}
			}
		}
	}
	JOINT LowerBack
	{
		OFFSET 0 0 0
		CHANNELS 3 Zrotation Yrotation Xrotation
		JOINT Spine
		{
			OFFSET -0.02096 2.02288 -0.14752
			CHANNELS 3 Zrotation Yrotation Xrotation
			JOINT Spine1
			{
				OFFSET 0.03477 2.03136 -0.02358
				CHANNELS 3 Zrotation Yrotation Xrotation
				JOINT Neck
				{
					OFFSET 0 0 0
					CHANNELS 3 Zrotation Yrotation Xrotation
					JOINT Neck1
					{
						OFFSET 0.00174 1.74359 0.19336
						CHANNELS 3 Zrotation Yrotation Xrotation
						JOINT Head
						{
							OFFSET -0.03054 1.76140 -0.17751
							CHANNELS 3 Zrotation Yrotation Xrotation
							End Site
							{
								OFFSET -0.00863 1.77239 -0.08120
							}
						}
					}
				}
				JOINT LeftShoulder
				{
					OFFSET 0 0 0
					CHANNELS 3 Zrotation Yrotation Xrotation
					JOINT LeftArm
					{
						OFFSET 3.68685 1.32687 -0.67367
						CHANNELS 3 Zrotation Yrotation Xrotation
						JOINT LeftForeArm
						{
							OFFSET 4.76468 -0.00000 -0.00000
							CHANNELS 3 Zrotation Yrotation Xrotation
							JOINT LeftHand
							{
								OFFSET 3.52712 -0.00000 -0.00000
								CHANNELS 3 Zrotation Yrotation Xrotation
								JOINT LeftFingerBase
								{
									OFFSET 0 0 0
									CHANNELS 3 Zrotation Yrotation Xrotation
									JOINT LeftHandIndex1
									{
										OFFSET 0.85956 -0.00000 -0.00000
										CHANNELS 3 Zrotation Yrotation Xrotation
										End Site
										{
											OFFSET 0.69300 -0.00000 -0.00000
										}
									}
								}
								JOINT LThumb
								{
									OFFSET 0 0 0
									CHANNELS 3 Zrotation Yrotation Xrotation
									End Site
									{
										OFFSET 0.70358 -0.00000 0.70358
									}
								}
							}
						}
					}
				}
				JOINT RightShoulder
				{
					OFFSET 0 0 0
					CHANNELS 3 Zrotation Yrotation Xrotation
					JOINT RightArm
					{
						OFFSET -3.31304 1.28268 -0.97357
						CHANNELS 3 Zrotation Yrotation Xrotation
						JOINT RightForeArm
						{
							OFFSET -4.90577 -0.00000 -0.00000
							CHANNELS 3 Zrotation Yrotation Xrotation
							JOINT RightHand
							{
								OFFSET -3.42692 -0.00000 0.00000
								CHANNELS 3 Zrotation Yrotation Xrotation
								JOINT RightFingerBase
								{
									OFFSET 0 0 0
									CHANNELS 3 Zrotation Yrotation Xrotation
									JOINT RightHandIndex1
									{
										OFFSET -0.74096 -0.00000 -0.00000
										CHANNELS 3 Zrotation Yrotation Xrotation
										End Site
										{
											OFFSET -0.59738 -0.00000 -0.00000
										}
									}
								}
								JOINT RThumb
								{
									OFFSET 0 0 0
									CHANNELS 3 Zrotation Yrotation Xrotation
									End Site
									{
										OFFSET -0.60650 -0.00000 0.60650
									}
								}
							}
						}
					}
				}
			}
		}
	}
}
MOTION
Frames: 6
Frame Time: 0.03125
0.00 0.00 0.00 -177.8140 74.1334 -177.1490 0.0000 0.0000 0.0000 -23.5997 0.3360 -7.6799 3.5147 11.4850 33.9337 -0.0705 -10.7765 14.2242 3.2519 -11.0920 -32.5908 0.0000 0.0000 0.0000 13.4649 0.6768 -15.9506 -6.5459 -14.9373 47.1352 -0.3067 -7.5358 10.4541 -0.5207 -4.6249 12.8416 -4.3969 0.5909 14.4757 1.9823 0.2859 0.7972 4.5545 0.3507 -7.3167 2.2233 3.4418 -15.1920 -3.8893 4.7041 10.0751 -1.1511 2.0895 5.6696 0.0000 -0.0000 0.0000 -67.2467 36.9974 12.3293 126.6973 -54.2437 -91.1664 -0.0000 0.0000 -20.3256 21.7230 -21.5610 -8.3297 -7.1250 0.0000 -0.0000 -4.4199 6.9946 3.8605 0.0000 -0.0000 0.0000 62.1897 -28.0549 16.1546 -86.7025 59.9589 -57.1447 0.0000 -0.0000 -15.1911 -6.3265 -27.9709 2.9767 7.1250 -0.0000 -0.0000 26.0261 -56.1319 -7.4632
0.00 0.00 0.00 -177.1650 67.1124 -176.3510 0.0000 0.0000 0.0000 -28.0680 5.3423 -16.9280 1.4005 7.4862 21.1640 -0.4542 -12.9159 10.2879 4.6846 -13.0196 -39.4418 0.0000 0.0000 0.0000 8.4894 7.6378 -20.6928 -3.2523 -11.0926 32.5929 -0.0047 -7.5925 5.4227 -0.5938 -4.9332 13.7183 -2.2714 -1.0520 16.0622 3.4140 -1.3481 2.0650 5.2296 -0.4798 -6.6597 3.6085 5.0491 -13.9731 -7.8223 7.0571 7.9485 -2.4145 3.0869 5.0832 -0.0000 0.0000 0.0000 -67.3740 49.3384 27.3199 126.2534 -54.3992 -90.8059 -0.0000 0.0000 -30.4006 24.9419 -20.3878 -9.2030 -7.1250 0.0000 -0.0000 -2.2608 7.7063 1.9388 -0.0000 0.0000 0.0000 61.0259 -36.9698 24.3529 -91.3650 59.9930 -61.1821 0.0000 -0.0000 -15.9526 -4.4414 -28.7685 2.1408 7.1250 -0.0000 -0.0000 28.4517 -56.4565 -8.4695
0.00 0.00 0.00 -173.8620 58.3694 -175.1660 0.0000 0.0000 0.0000 -30.9286 8.7443 -30.0518 4.1898 12.4088 37.1938 -0.1483 -11.3013 13.7216 2.4875 -9.8151 -28.3799 0.0000 0.0000 0.0000 2.3014 21.1580 -15.5483 -2.0997 -9.0708 26.0171 -0.4660 -5.4547 12.1851 -0.6058 -4.9822 13.8578 0.6149 -3.3455 18.0907 4.9608 -3.5122 3.0612 5.7960 -1.5128 -6.5364 6.0031 7.4132 -13.3632 -11.8881 10.2853 6.6893 -3.7603 4.5616 5.1455 -0.0000 -0.0000 0.0000 -77.2829 51.6857 27.6978 132.6437 -51.8720 -95.9216 -0.0000 0.0000 -31.3385 25.1313 -21.3513 -9.6922 -7.1250 0.0000 -0.0000 -2.2443 6.6406 1.9712 -0.0000 -0.0000 0.0000 63.5059 -40.1681 28.2043 -95.5190 59.8846 -64.7777 0.0000 -0.0000 -6.6881 -7.9221 -26.3087 3.5292 7.1250 -0.0000 -0.0000 23.3445 -54.9419 -5.9397
0.00 0.00 0.00 -171.3110 54.6393 -174.1060 0.0000 0.0000 0.0000 -29.8218 7.3861 -34.8728 8.5359 16.4996 54.4708 -0.1902 -11.2855 -4.6767 3.0076 -10.7074 -31.2993 0.0000 0.0000 0.0000 2.5755 20.5514 -15.5878 -3.3517 -11.2437 33.1061 -0.0694 -0.4737 4.8300 -0.2089 2.9430 -8.1200 1.7185 -3.6354 20.0496 5.5885 -3.4128 3.2648 5.9695 -1.4126 -7.4067 6.4054 7.8991 -12.6895 -12.1508 10.7931 5.2538 -3.8865 4.8779 4.6769 -0.0000 0.0000 0.0000 -84.9581 48.1202 24.5310 133.7052 -51.3873 -96.7539 -0.0000 0.0000 -29.5843 25.1684 -22.3906 -10.1479 -7.1250 0.0000 -0.0000 -2.3391 5.5224 2.1049 -0.0000 0.0000 0.0000 69.5950 -39.0340 24.9083 -87.4774 59.9759 -57.8156 0.0000 -0.0000 -7.9895 -9.4522 -25.6833 4.1270 7.1250 -0.0000 -0.0000 21.4615 -54.6558 -5.2727
0.00 0.00 0.00 -165.1360 52.8466 -169.3550 0.0000 0.0000 0.0000 -24.7064 4.2683 -38.9250 13.2407 18.8673 69.8714 1.6375 -2.2440 -23.5849 3.4874 -11.4451 -33.7960 0.0000 0.0000 0.0000 4.2645 22.9635 -18.6527 -5.9794 -14.4083 44.8988 -0.4420 9.5181 -12.6983 -0.0852 1.8824 -5.1809 4.3642 -3.0722 23.0630 6.3495 -1.6085 3.0982 5.0140 -0.5199 -9.4244 6.3128 8.0710 -11.4933 -10.9667 10.7523 2.9956 -3.5882 5.0130 3.7085 0.0000 0.0000 0.0000 -94.1704 41.4281 21.4132 131.5927 -52.3326 -95.0923 -0.0000 0.0000 -26.8784 26.9558 -24.1317 -11.7453 -7.1250 0.0000 -0.0000 -1.4558 3.3036 1.3699 0.0000 0.0000 0.0000 78.1113 -34.2288 19.1919 -72.8147 58.8541 -45.1744 0.0000 -0.0000 -13.0451 -9.4797 -26.5228 4.2644 7.1250 -0.0000 -0.0000 21.9524 -55.4388 -5.8291
0.00 0.00 0.00 -162.3670 54.1236 -161.7420 0.0000 0.0000 0.0000 -17.7319 -4.4057 -48.8452 19.7865 19.9989 89.3759 2.8466 -2.0254 -31.4388 1.9226 -8.7030 -24.8707 0.0000 0.0000 0.0000 3.7908 18.0512 -37.0272 -11.7096 -18.2652 65.0653 -2.8094 14.4311 -30.4327 -1.1273 6.7439 -18.9589 2.7306 0.9623 26.3177 6.4252 3.4952 2.7690 4.4378 1.9363 -11.8723 7.8806 8.8764 -11.7014 -14.4861 11.5405 -2.4837 -4.9120 5.5460 2.5049 -0.0000 -0.0000 0.0000 -104.0327 18.9272 24.8605 93.3513 -59.9575 -62.9019 -0.0000 0.0000 -34.6335 32.2658 -29.2158 -17.1270 -7.1250 0.0000 -0.0000 0.8250 -3.4967 -0.8738 -0.0000 -0.0000 0.0000 86.3097 -6.9123 13.1667 -36.6048 45.9246 -15.9555 0.0000 -0.0000 -13.4903 -10.8799 -26.1640 4.8443 7.1250 -0.0000 -0.0000 20.3438 -55.3776 -5.3437
